HIERARCHY
ROOT Hips
{
    OFFSET 0.0 0.0 0.0
    CHANNELS 6 Xposition Yposition Zposition Zrotation Xrotation Yrotation
    JOINT Spine
    {
        OFFSET 0.0 5.0 0.0
        CHANNELS 3 Zrotation Xrotation Yrotation
        JOINT Chest
        {
            OFFSET 0.0 5.0 0.0
            CHANNELS 3 Zrotation Xrotation Yrotation
            JOINT Neck
            {
                OFFSET 0.0 8.0 0.0
                CHANNELS 3 Zrotation Xrotation Yrotation
                JOINT Head
                {
                    OFFSET 0.0 5.0 0.0
                    CHANNELS 3 Zrotation Xrotation Yrotation
                    End Site
                    {
                        OFFSET 0.0 3.0 0.0
                    }
                }
            }
            JOINT LeftShoulder
            {
                OFFSET -5.0 0.0 0.0
                CHANNELS 3 Zrotation Xrotation Yrotation
                JOINT LeftArm
                {
                    OFFSET 0.0 -10.0 0.0
                    CHANNELS 3 Zrotation Xrotation Yrotation
                    JOINT LeftForeArm
                    {
                        OFFSET 0.0 -10.0 0.0
                        CHANNELS 3 Zrotation Xrotation Yrotation
                        End Site
                        {
                            OFFSET 0.0 -3.0 0.0
                        }
                    }
                }
            }
        }
    }
}

MOTION
Frames: 26
Frame Time: 0.033333
970.000000 442.938926 149.285925 0.000000 0.000000 0.000000 0.000000 0.000000 0.000000 29.678605 3.309728 0.000000 180.000000 -3.538714 0.000000 29.744881 -7.352740 -0.000000 150.255119 0.094376 30.000000 19.983107 -6.636834 0.000000 18.000000 -0.092281 0.000000
1354.522934 467.411410 127.848347 0.000000 0.000000 0.000000 0.000000 0.000000 0.000000 150.622570 2.652813 4.973798 -29.377430 -5.862283 4.973798 140.176400 0.500146 3.759997 -12.221629 -2.567001 29.763441 132.794256 -2.116809 -3.759997 -2.626015 0.469020 0.313953
969.997807 442.887864 128.274141 0.000000 0.000000 0.000000 0.000000 0.000000 0.000000 31.061399 -13.368944 9.635073 180.000000 -5.616894 9.635073 30.285790 -0.756588 7.460697 149.714210 -4.782600 29.057495 19.151579 8.784902 -7.460697 18.000000 -0.472789 0.626666
1246.736984 514.278152 119.788727 0.000000 0.000000 0.000000 0.000000 0.000000 0.000000 143.557092 -1.872777 13.690942 -36.442908 22.027006 13.690942 133.761037 -13.700774 11.043737 -156.950665 -5.050481 27.893295 0.000000 0.000000 0.000000 1.928484 0.517928 0.936907
1245.221100 458.637464 117.770596 0.000000 0.000000 0.000000 0.000000 0.000000 0.000000 160.701064 -7.158782 16.886559 -19.298936 1.639105 16.886559 140.193827 -0.676465 14.452610 -157.554825 -5.248934 26.289200 29.500467 5.477777 -14.452610 -15.049953 -0.547778 1.243449
1257.365570 418.514181 112.113130 0.000000 0.000000 0.000000 0.000000 0.000000 0.000000 -143.710676 0.866639 19.021130 36.289324 -1.423191 19.021130 163.220413 0.638577 17.633558 11.688054 -2.117049 24.270510 152.038385 2.419777 -17.633558 -2.339948 -0.111806 1.545085
1275.099564 408.163741 107.333539 0.000000 0.000000 0.000000 0.000000 0.000000 0.000000 -132.929531 12.726436 19.960535 47.070469 -7.594950 19.960535 173.491912 3.834323 20.536413 -160.709681 -5.422757 21.869059 33.138793 5.683329 -20.536413 -14.686121 -0.568333 1.840623
1290.611115 384.880857 114.978864 0.000000 0.000000 0.000000 0.000000 0.000000 0.000000 -132.705235 3.122238 19.645745 47.294765 14.853100 19.645745 -173.778854 -7.663761 23.115397 20.496835 4.884437 19.122720 -161.220290 -4.491686 -23.115397 1.723235 0.370476 2.128896
1302.817154 380.305352 95.348970 0.000000 0.000000 0.000000 0.000000 0.000000 0.000000 -131.493915 3.114688 18.096541 48.506085 0.275990 18.096541 -165.393697 -1.643922 25.329838 23.154815 -1.945283 16.074804 -178.200316 2.743615 -25.329838 0.138141 -0.233901 2.408768
1304.997711 379.563582 81.282411 0.000000 0.000000 0.000000 0.000000 0.000000 0.000000 -126.727972 -8.717448 15.410265 53.272028 5.475898 15.410265 -160.219593 0.432723 27.144812 28.448880 -0.763041 12.773379 -174.368770 1.637677 -27.144812 0.079526 -0.182666 2.679134
1311.668472 386.890390 92.918653 0.000000 0.000000 0.000000 0.000000 0.000000 0.000000 -122.308728 -22.289962 11.755705 57.691272 7.264825 11.755705 -158.801130 -7.298049 28.531695 150.942637 -0.861947 9.270510 -154.878332 -4.043812 -28.531695 2.695409 0.410405 2.938926
1305.131836 395.180186 65.419132 0.000000 0.000000 0.000000 0.000000 0.000000 0.000000 -125.112810 15.469790 7.362491 54.887190 -15.835448 7.362491 -146.487292 3.992629 29.468618 -175.167369 8.476572 5.621439 -159.224034 -5.480179 -29.468618 1.782042 0.505208 3.187120
1296.320457 392.734526 74.610296 0.000000 0.000000 0.000000 0.000000 0.000000 0.000000 -131.035750 11.680021 2.506665 48.964250 -7.038852 2.506665 -128.969563 4.855529 29.940802 38.856147 -2.180501 1.883716 -134.776850 0.203664 -29.940802 3.458429 0.025075 3.422736
1306.963577 386.612041 71.573590 0.000000 0.000000 0.000000 0.000000 0.000000 0.000000 -124.469622 -7.867252 -2.506665 55.530378 5.291851 -2.506665 -109.994856 0.906169 29.940802 37.691309 5.993162 -1.883716 -118.274788 -1.270941 -29.940802 5.098336 -0.157523 3.644843
969.892723 442.572198 70.567111 0.000000 0.000000 0.000000 0.000000 0.000000 0.000000 41.287575 33.322970 -7.362491 180.000000 -5.670935 -7.362491 30.974696 6.213195 29.468618 149.025304 -2.017757 -5.621439 15.072869 -1.082164 -29.468618 18.000000 0.887054 3.852566
969.876883 442.545207 67.678462 0.000000 0.000000 0.000000 0.000000 0.000000 0.000000 42.241956 -32.336296 -11.755705 180.000000 11.420389 -11.755705 30.826133 4.787558 28.531695 149.173867 3.755668 -9.270510 14.823070 -1.616705 -28.531695 18.000000 -0.320620 4.045085
969.859960 442.518116 65.103490 0.000000 0.000000 0.000000 0.000000 0.000000 0.000000 43.199779 -31.391829 -15.410265 180.000000 -9.001190 -15.410265 30.649504 13.025937 27.144812 149.350496 18.515992 -12.773379 14.587557 -7.252628 -27.144812 18.000000 -0.139729 4.221640
969.841956 442.490926 66.819968 0.000000 0.000000 0.000000 0.000000 0.000000 0.000000 44.157210 0.106088 -18.096541 180.000000 14.779623 -18.096541 30.446417 3.791991 25.329838 149.553583 -2.799551 -16.074804 14.366154 5.378074 -25.329838 18.000000 -0.250249 4.381533
969.822873 442.463637 45.990869 0.000000 0.000000 0.000000 0.000000 0.000000 0.000000 45.110117 20.286274 -19.645745 180.000000 -9.349681 -19.645745 30.218633 8.086791 23.115397 149.781367 -7.300910 -19.122720 14.158653 -1.762998 -23.115397 18.000000 0.371463 4.524135
969.802712 442.436251 47.774234 0.000000 0.000000 0.000000 0.000000 0.000000 0.000000 46.054109 -29.111822 -19.960535 180.000000 16.531392 -19.960535 29.968037 -8.578903 20.536413 150.031963 -7.180403 -21.869059 13.964823 -0.655083 -20.536413 18.000000 0.293660 4.648882
1187.040939 541.658249 59.162092 0.000000 0.000000 0.000000 0.000000 0.000000 0.000000 82.806623 22.932541 -19.021130 -97.193377 -12.000932 -19.021130 45.395981 1.615373 17.633558 -156.144455 -2.937240 -24.270510 0.000000 0.000000 0.000000 0.000000 0.000000 0.000000
1182.242889 522.024286 62.307354 0.000000 0.000000 0.000000 0.000000 0.000000 0.000000 -105.721938 -2.796092 -16.886559 74.278062 -7.239457 -16.886559 -155.708006 -1.985018 14.452610 -157.302521 -2.294635 -26.289200 0.000000 0.000000 0.000000 2.684983 0.250468 4.842916
1180.914459 527.065626 44.911124 0.000000 0.000000 0.000000 0.000000 0.000000 0.000000 88.055617 -3.671902 -13.690942 -91.944383 -1.193095 -13.690942 -158.862018 -2.609199 11.043737 -151.747289 -2.611924 -27.893295 0.000000 0.000000 0.000000 0.000000 0.000000 0.000000
1236.800194 541.387432 61.282803 0.000000 0.000000 0.000000 0.000000 0.000000 0.000000 -85.588400 23.311153 -9.635073 94.411600 -9.138357 -9.635073 -159.297106 0.548231 7.460697 -157.915391 -2.971660 -29.057495 26.607362 1.847163 -7.460697 14.926890 1.008527 4.960574
1161.066513 575.006626 47.565294 0.000000 0.000000 0.000000 0.000000 0.000000 0.000000 -81.021168 8.460213 -4.973798 98.978832 -11.757355 -4.973798 -102.851701 -0.193259 3.759997 -157.041007 -2.779877 -29.763441 21.429890 1.794246 -3.759997 10.859432 0.692206 4.990134
1255.636253 512.645942 49.924975 0.000000 0.000000 0.000000 0.000000 0.000000 0.000000 77.832564 5.974948 -0.000000 -102.167436 1.708067 -0.000000 -158.264834 -2.845889 0.000000 -130.745502 -5.265608 -30.000000 -157.699225 -1.719313 -0.000000 0.000000 0.000000 0.000000
